<?xml version="1.0" standalone="no"?>
<!DOCTYPE svg PUBLIC "-//W3C//DTD SVG 20010904//EN"
 "http://www.w3.org/TR/2001/REC-SVG-20010904/DTD/svg10.dtd">
<svg version="1.0" xmlns="http://www.w3.org/2000/svg"
 width="1463.000000pt" height="1455.000000pt" viewBox="0 0 1463.000000 1455.000000"
 preserveAspectRatio="xMidYMid meet">

<g transform="translate(0.000000,1455.000000) scale(0.100000,-0.100000)"
fill="#000000" stroke="none">
<path d="M6980 14315 c-327 -71 -510 -150 -773 -335 -119 -84 -342 -307 -429
-430 -82 -115 -195 -338 -242 -476 -69 -202 -89 -318 -94 -535 -2 -108 1 -251
7 -318 8 -85 8 -128 1 -141 -6 -11 -36 -33 -68 -49 -76 -38 -316 -133 -422
-167 -47 -15 -148 -51 -225 -80 -204 -77 -706 -261 -804 -295 -101 -35 -90
-40 -194 101 -210 284 -369 444 -573 577 -174 113 -445 225 -655 270 -70 15
-130 18 -359 18 -247 -1 -285 -3 -375 -23 -691 -154 -1228 -652 -1420 -1317
-85 -296 -97 -679 -29 -947 206 -816 871 -1379 1696 -1437 233 -17 467 11 707
84 66 20 130 35 143 33 40 -5 107 -110 554 -858 134 -223 257 -427 275 -455
45 -68 44 -104 -7 -202 -71 -135 -633 -992 -709 -1081 -44 -51 -63 -53 -153
-13 -37 16 -137 49 -222 73 l-155 43 -315 0 c-295 0 -320 -1 -396 -22 -291
-80 -555 -208 -759 -368 -109 -85 -276 -260 -357 -375 -80 -114 -192 -327
-243 -465 -139 -375 -139 -877 0 -1250 160 -428 441 -767 822 -991 347 -205
713 -283 1138 -244 222 21 427 79 627 180 211 106 304 177 555 422 106 103
197 188 203 188 34 0 1488 -724 1627 -810 46 -28 88 -60 94 -71 8 -15 8 -59 0
-158 -14 -170 -14 -413 -1 -506 34 -233 157 -551 295 -758 253 -382 630 -652
1096 -786 149 -43 274 -54 539 -48 246 6 297 14 477 73 558 184 1007 609 1206
1144 72 194 106 364 114 580 13 351 -67 669 -256 1020 -16 30 -32 65 -36 77
-10 35 23 71 734 813 671 699 847 883 1268 1325 209 220 397 416 417 435 l37
35 62 -34 c294 -160 441 -223 632 -270 162 -39 227 -46 440 -45 190 0 223 3
340 28 688 145 1216 618 1435 1286 68 206 74 253 75 545 0 320 -12 397 -102
635 -158 420 -467 791 -830 998 -318 181 -729 275 -1068 244 -314 -29 -528
-102 -903 -307 -48 -26 -96 -45 -114 -45 -29 0 -142 110 -1172 1141 -628 628
-1184 1186 -1235 1241 l-95 99 42 82 c23 45 67 127 97 182 214 391 284 845
196 1269 -77 365 -259 695 -527 957 -237 230 -490 379 -804 474 -129 39 -263
55 -500 60 -202 5 -222 4 -330 -20z m570 -466 c102 -12 258 -63 371 -119 390
-196 666 -554 760 -985 29 -133 35 -334 15 -473 -43 -288 -184 -568 -396 -783
-206 -209 -433 -332 -731 -396 -106 -23 -408 -25 -514 -4 -435 85 -819 380
-1010 776 -62 129 -89 205 -118 335 -28 127 -30 393 -4 523 64 319 223 595
459 795 211 178 456 302 653 331 87 12 416 13 515 0z m-5105 -1882 c171 -38
385 -135 536 -244 45 -31 125 -103 178 -159 187 -193 304 -411 363 -675 31
-139 33 -426 4 -558 -59 -274 -178 -498 -365 -694 -211 -219 -450 -355 -741
-420 -131 -29 -405 -31 -530 -3 -405 88 -698 290 -922 636 -107 165 -162 301
-195 484 -22 126 -22 399 1 526 20 112 72 272 117 362 88 175 255 371 419 493
162 122 433 242 598 265 100 13 453 5 537 -13z m3212 -409 c16 -18 50 -62 73
-98 59 -89 178 -236 276 -343 l82 -89 -51 -81 c-60 -98 -257 -405 -486 -759
-91 -142 -227 -354 -302 -470 -164 -256 -193 -292 -227 -283 -53 13 -835 400
-982 485 -113 66 -109 50 -67 268 47 239 52 316 36 542 -7 102 -13 203 -13
225 l-1 40 80 40 c45 22 180 76 300 119 121 44 402 147 625 229 453 167 563
205 601 206 16 1 36 -11 56 -31z m4006 -1785 c655 -656 1219 -1219 1251 -1252
l59 -60 -70 -118 c-105 -175 -137 -236 -189 -363 -59 -145 -69 -166 -90 -174
-9 -3 -59 1 -112 9 -116 18 -492 69 -915 125 -307 40 -379 57 -397 90 -6 10
-19 88 -30 173 -57 447 -224 804 -520 1111 -219 227 -464 381 -763 481 -210
70 -333 89 -577 89 -169 0 -225 -4 -322 -22 -460 -87 -806 -289 -1133 -662
-54 -62 -106 -112 -120 -116 -25 -6 -153 55 -210 100 l-30 24 18 37 c27 56
273 447 525 835 124 190 263 404 309 475 94 145 147 205 178 205 12 0 40 -9
62 -20 178 -86 549 -149 803 -137 346 17 630 108 940 301 58 36 113 64 123 63
9 -1 554 -538 1210 -1194z m-5588 -404 c387 -194 596 -307 649 -351 l37 -30
-41 -76 c-23 -42 -115 -189 -205 -326 -90 -138 -217 -333 -282 -433 -124 -191
-175 -255 -197 -247 -20 8 -48 50 -132 196 -71 124 -297 504 -505 852 l-89
148 138 147 c76 80 164 179 195 219 32 40 66 72 75 72 10 0 171 -77 357 -171z
m3330 51 c506 -47 945 -347 1160 -795 81 -167 125 -317 134 -449 10 -138 -3
-380 -23 -471 -70 -304 -257 -594 -526 -814 -130 -106 -445 -235 -651 -267
-126 -19 -335 -14 -454 11 -368 77 -691 286 -881 571 -119 178 -211 391 -239
549 -20 114 -20 380 0 500 67 411 372 822 755 1015 180 90 354 136 600 159 8
0 65 -4 125 -9z m-2071 -681 c55 -29 118 -63 140 -76 l38 -25 -7 -61 c-3 -34
-18 -120 -31 -192 -110 -574 33 -1136 400 -1573 200 -238 539 -473 811 -563
39 -12 135 -39 215 -59 l145 -36 3 -1070 2 -1070 -102 -23 c-57 -13 -177 -47
-268 -77 -90 -30 -179 -54 -197 -54 -23 0 -41 9 -65 34 -32 33 -146 213 -243
386 -49 86 -287 487 -508 855 -66 110 -207 346 -312 525 -105 179 -321 543
-479 810 -159 267 -347 587 -418 712 l-130 227 25 54 c13 30 76 132 139 228
156 236 239 365 451 694 192 299 265 405 280 405 5 0 55 -23 111 -51z m7389
-49 c336 -71 577 -210 793 -458 248 -283 355 -589 341 -972 -14 -382 -135
-658 -407 -931 -279 -280 -608 -419 -992 -419 -661 0 -1231 473 -1374 1140
-26 120 -26 401 -1 520 62 291 187 520 397 731 210 211 418 323 727 394 96 22
125 24 263 20 105 -2 187 -11 253 -25z m-3497 -1170 c22 -5 177 -27 345 -50
496 -65 871 -118 925 -130 82 -18 84 -21 95 -145 20 -236 106 -549 195 -714
58 -107 158 -262 184 -286 11 -10 20 -26 20 -35 0 -41 -101 -156 -480 -551
-187 -195 -1078 -1126 -1700 -1777 -111 -117 -216 -220 -231 -228 -37 -19 -73
-18 -90 2 -45 55 -376 247 -508 294 -102 37 -310 96 -375 105 l-46 7 0 1072 0
1072 88 18 c285 59 539 171 757 334 311 232 475 447 660 863 75 166 77 168
161 149z m-5132 -650 c16 -30 86 -150 155 -267 69 -116 156 -263 192 -325 36
-62 138 -232 226 -378 88 -146 262 -438 388 -650 496 -838 832 -1401 911
-1530 98 -160 102 -133 -47 -307 -55 -65 -132 -165 -171 -223 -87 -129 -106
-150 -133 -150 -29 0 -384 172 -925 449 -498 256 -747 387 -755 401 -3 5 6 53
19 107 58 229 76 444 57 673 -21 246 -63 402 -160 605 -102 213 -201 357 -370
538 -56 60 -101 115 -101 124 0 24 69 139 300 498 346 539 354 548 414 435z
m-1649 -999 c124 -26 284 -90 407 -164 357 -215 591 -536 675 -927 27 -128 25
-439 -5 -572 -30 -138 -66 -239 -124 -349 -191 -366 -595 -669 -988 -740 -114
-21 -432 -18 -540 5 -187 40 -396 135 -550 250 -234 175 -437 456 -520 721
-29 93 -43 352 -31 576 8 136 14 178 36 244 112 336 363 639 672 812 145 80
332 143 488 162 116 14 372 5 480 -18z m5130 -2340 c367 -80 694 -295 889
-586 114 -168 197 -376 233 -580 20 -119 13 -342 -16 -478 -63 -297 -174 -501
-386 -712 -331 -331 -695 -455 -1184 -405 -134 14 -252 49 -387 115 -493 240
-795 683 -821 1206 -28 544 286 1068 792 1322 143 71 303 119 475 141 77 10
317 -4 405 -23z"/>
<path d="M7240 13593 c-148 -15 -268 -89 -329 -202 -58 -110 -73 -239 -47
-404 51 -314 198 -492 415 -505 244 -14 404 153 466 487 65 352 -72 584 -365
621 -46 5 -89 9 -95 8 -5 0 -26 -3 -45 -5z"/>
<path d="M6916 12509 c-10 -6 -65 -28 -122 -49 -125 -45 -161 -69 -202 -129
-57 -84 -98 -256 -122 -510 -12 -117 -11 -125 7 -149 57 -76 541 -182 833
-182 230 0 634 77 797 153 49 22 53 97 17 332 -51 329 -103 417 -284 476 -36
12 -89 32 -118 45 l-53 24 -22 -23 c-95 -100 -273 -153 -427 -128 -78 13 -191
67 -242 116 -42 40 -37 38 -62 24z"/>
<path d="M2220 11776 c0 -2 7 -7 16 -10 8 -3 12 -2 9 4 -6 10 -25 14 -25 6z"/>
<path d="M2394 11713 c4 -24 21 -27 37 -6 11 15 11 16 -1 6 -16 -15 -34 -17
-25 -4 3 5 1 12 -4 15 -5 4 -8 -2 -7 -11z"/>
<path d="M1905 11700 c-3 -6 1 -7 9 -4 18 7 21 14 7 14 -6 0 -13 -4 -16 -10z"/>
<path d="M2502 11654 c14 -16 15 -23 6 -32 -7 -7 -10 -12 -7 -13 2 0 12 -2 22
-4 14 -3 16 0 8 9 -6 7 -9 15 -6 18 3 3 -5 13 -17 24 -23 19 -23 19 -6 -2z"/>
<path d="M1779 11573 c-13 -16 -12 -17 4 -4 9 7 17 15 17 17 0 8 -8 3 -21 -13z"/>
<path d="M1840 10855 c0 -7 30 -13 34 -7 3 4 -4 9 -15 9 -10 1 -19 0 -19 -2z"/>
<path d="M2466 10825 c-11 -8 -17 -17 -14 -20 2 -3 13 4 23 15 21 23 18 25 -9
5z"/>
<path d="M2433 10793 c7 -11 -15 -35 -29 -32 -25 4 -38 -1 -27 -12 12 -12 41
-1 62 25 9 11 9 16 0 22 -7 4 -9 3 -6 -3z"/>
<path d="M1969 10733 c-13 -16 -12 -17 4 -4 16 13 21 21 13 21 -2 0 -10 -8
-17 -17z"/>
<path d="M2327 10725 c-4 -8 -3 -16 1 -19 4 -3 9 4 9 15 2 23 -3 25 -10 4z"/>
<path d="M1793 10694 c3 -3 -4 -16 -16 -28 -13 -11 -18 -18 -13 -14 5 4 17 2
25 -5 14 -10 14 -10 3 4 -10 14 -10 18 3 23 18 6 20 26 3 26 -6 0 -9 -3 -5 -6z"/>
<path d="M2521 10677 c-13 -21 -12 -21 5 -5 10 10 16 20 13 22 -3 3 -11 -5
-18 -17z"/>
<path d="M1900 10601 l-25 -7 26 -5 c17 -4 26 -1 26 8 0 7 -1 13 -1 12 -1 -1
-12 -4 -26 -8z"/>
<path d="M1489 10553 c-13 -16 -12 -17 4 -4 16 13 21 21 13 21 -2 0 -10 -8
-17 -17z"/>
<path d="M2830 10556 c0 -2 7 -7 16 -10 8 -3 12 -2 9 4 -6 10 -25 14 -25 6z"/>
<path d="M1480 10521 c0 -6 4 -13 10 -16 6 -3 7 1 4 9 -7 18 -14 21 -14 7z"/>
<path d="M2970 9870 c-6 -11 -8 -20 -6 -20 3 0 10 9 16 20 6 11 8 20 6 20 -3
0 -10 -9 -16 -20z"/>
<path d="M1346 9857 c3 -10 9 -15 12 -12 3 3 0 11 -7 18 -10 9 -11 8 -5 -6z"/>
<path d="M1422 9816 c7 -8 15 -12 17 -11 5 6 -10 25 -20 25 -5 0 -4 -6 3 -14z"/>
<path d="M1450 9806 c0 -2 7 -7 16 -10 8 -3 12 -2 9 4 -6 10 -25 14 -25 6z"/>
<path d="M2528 9723 c6 -2 18 -2 25 0 6 3 1 5 -13 5 -14 0 -19 -2 -12 -5z"/>
<path d="M7201 9185 c-219 -50 -334 -208 -333 -459 1 -297 129 -556 311 -628
80 -32 213 -31 294 1 69 27 159 110 200 185 97 176 138 459 88 618 -42 132
-136 230 -258 268 -89 28 -219 34 -302 15z"/>
<path d="M6900 8096 c-30 -12 -91 -36 -135 -51 -167 -60 -222 -167 -270 -528
-22 -173 -21 -239 8 -264 29 -27 87 -48 224 -83 268 -70 527 -98 727 -80 308
27 640 107 695 168 23 25 24 30 18 132 -13 218 -69 463 -125 545 -38 55 -89
86 -212 130 -58 21 -113 42 -123 47 -14 7 -26 2 -56 -25 -91 -82 -198 -120
-331 -119 -130 1 -257 50 -330 127 -13 14 -26 25 -29 25 -3 -1 -31 -11 -61
-24z"/>
<path d="M2083 5645 c-202 -56 -313 -217 -313 -450 0 -89 28 -238 63 -334 57
-160 151 -262 276 -301 248 -78 462 75 541 386 88 344 5 595 -227 685 -75 29
-261 37 -340 14z"/>
<path d="M1800 4559 c-25 -10 -83 -33 -128 -50 -46 -17 -99 -45 -118 -61 -81
-71 -136 -261 -164 -562 -14 -142 -8 -159 63 -191 108 -50 392 -112 622 -136
228 -24 579 20 848 107 137 45 147 54 147 138 0 168 -53 447 -105 553 -45 90
-76 115 -208 163 -56 21 -116 43 -133 51 -30 12 -34 11 -80 -28 -181 -151
-448 -152 -628 -3 -26 22 -53 40 -60 39 -6 -1 -31 -9 -56 -20z"/>
<path d="M7255 3230 c-158 -41 -259 -141 -300 -295 -21 -80 -19 -230 4 -340
22 -106 73 -241 89 -238 6 2 9 -3 6 -11 -3 -7 2 -19 11 -26 8 -7 15 -18 15
-24 0 -31 150 -144 172 -130 6 4 8 2 5 -3 -4 -6 18 -16 54 -23 114 -24 249 12
331 88 15 14 25 29 22 34 -3 5 -1 7 5 6 12 -4 62 62 55 73 -3 5 -1 9 4 9 13 0
46 70 44 94 0 10 2 15 6 12 19 -20 64 215 63 334 -1 155 -34 245 -121 332
-114 114 -288 154 -465 108z"/>
<path d="M7731 2146 c-12 -12 -18 -26 -14 -31 5 -4 3 -5 -4 -1 -7 4 -31 -7
-53 -23 -23 -16 -71 -40 -108 -52 -119 -41 -302 -28 -390 28 -12 7 -27 11 -33
8 -5 -4 -8 -2 -7 3 2 6 -1 12 -7 14 -5 1 -25 18 -45 35 -37 35 -59 40 -92 22
-12 -6 -63 -26 -114 -44 -51 -18 -109 -45 -129 -61 -37 -28 -83 -91 -90 -123
-2 -9 -10 -32 -18 -51 -28 -67 -77 -377 -77 -490 0 -57 39 -91 137 -120 43
-13 84 -23 93 -24 8 -1 17 -4 20 -7 6 -8 177 -42 325 -65 170 -27 401 -23 594
10 84 14 174 31 200 37 64 14 214 59 226 69 6 4 22 10 36 13 52 13 60 82 34
279 -8 62 -20 131 -26 153 -6 22 -10 47 -11 55 0 24 -29 113 -42 129 -6 8 -10
17 -10 20 4 17 -20 56 -59 94 -32 33 -63 51 -122 72 -44 15 -106 38 -137 51
l-56 22 -21 -22z"/>
</g>
</svg>
